<svg width="40" height="41" viewBox="0 0 40 41" fill="none" xmlns="http://www.w3.org/2000/svg">
<circle cx="20" cy="20.0312" r="20" fill="#115C75"/>
<path d="M32.8598 20.4217C32.8598 13.2775 27.1035 7.48598 20.0026 7.48598C12.9018 7.48598 7.14551 13.2775 7.14551 20.4217C7.14551 26.8781 11.8472 32.2298 17.9937 33.2003V24.1609H14.7292V20.4217H17.9937V17.5718C17.9937 14.3298 19.9133 12.539 22.85 12.539C24.2568 12.539 25.7281 12.7916 25.7281 12.7916V15.975H24.1069C22.5098 15.975 22.0116 16.9723 22.0116 17.9953V20.4217H25.5774L25.0074 24.1609H22.0116V33.2003C28.1582 32.2298 32.8598 26.8784 32.8598 20.4217Z" fill="white"/>
</svg>
