<svg width="40" height="41" viewBox="0 0 40 41" fill="none" xmlns="http://www.w3.org/2000/svg">
<circle cx="20" cy="20.0312" r="20" fill="#115C75"/>
<path d="M31 16.15C31 17.657 29.768 18.9 28.25 18.9C26.732 18.9 25.5 17.657 25.5 16.15C25.5 17.657 24.268 18.9 22.75 18.9C21.232 18.9 20 17.657 20 16.15C20 17.657 18.768 18.9 17.25 18.9C15.732 18.9 14.5 17.657 14.5 16.15C14.5 17.657 13.268 18.9 11.75 18.9C10.232 18.9 9 17.657 9 16.15L10.529 10.188C10.529 10.188 10.848 9 11.97 9H28.03C29.152 9 29.471 10.188 29.471 10.188L31 16.15ZM29.9 20.22V28.8C29.9 30.01 28.91 31 27.7 31H12.3C11.09 31 10.1 30.01 10.1 28.8V20.22C10.8231 20.5186 11.6133 20.6169 12.3875 20.5046C13.1618 20.3924 13.8915 20.0737 14.5 19.582C15.259 20.187 16.216 20.55 17.25 20.55C18.295 20.55 19.252 20.187 20 19.582C20.759 20.187 21.716 20.55 22.75 20.55C23.795 20.55 24.752 20.187 25.5 19.582C26.248 20.187 27.216 20.55 28.25 20.55C28.833 20.55 29.394 20.429 29.9 20.22ZM27.7 25.863C27.7 25.643 27.7 25.412 27.645 25.17L27.612 24.994H24.345V26.281H26.336C26.27 26.523 26.182 26.765 25.995 26.963C25.632 27.326 25.137 27.524 24.609 27.524C24.059 27.524 23.52 27.293 23.124 26.908C22.365 26.127 22.365 24.862 23.146 24.07C23.905 23.3 25.159 23.3 25.951 24.037L26.105 24.18L27.029 23.245L26.853 23.091C26.237 22.519 25.423 22.2 24.565 22.2H24.554C23.663 22.2 22.827 22.541 22.2 23.157C21.551 23.795 21.188 24.631 21.188 25.5C21.188 26.38 21.529 27.194 22.156 27.799C22.8094 28.4367 23.685 28.7957 24.598 28.8H24.62C25.5 28.8 26.281 28.481 26.853 27.92C27.37 27.392 27.7 26.6 27.7 25.863Z" fill="white"/>
</svg>
