<svg width="40" height="41" viewBox="0 0 40 41" fill="none" xmlns="http://www.w3.org/2000/svg">
<circle cx="20" cy="20.0312" r="20" fill="#115C75"/>
<path fill-rule="evenodd" clip-rule="evenodd" d="M24.8095 8.73849H14.5238C10.9734 8.73849 8.09521 11.6167 8.09521 15.1671V25.4528C8.09521 29.0031 10.9734 31.8813 14.5238 31.8813H24.8095C28.3599 31.8813 31.2381 29.0031 31.2381 25.4528V15.1671C31.2381 11.6167 28.3599 8.73849 24.8095 8.73849ZM28.9881 25.4528C28.981 27.7575 27.1143 29.6243 24.8095 29.6313H14.5238C12.219 29.6243 10.3523 27.7575 10.3452 25.4528V15.1671C10.3523 12.8622 12.219 10.9956 14.5238 10.9885H24.8095C27.1143 10.9956 28.981 12.8622 28.9881 15.1671V25.4528ZM25.7738 15.4885C26.4839 15.4885 27.0595 14.9129 27.0595 14.2028C27.0595 13.4927 26.4839 12.9171 25.7738 12.9171C25.0637 12.9171 24.4881 13.4927 24.4881 14.2028C24.4881 14.9129 25.0637 15.4885 25.7738 15.4885ZM19.6666 14.5242C16.4713 14.5242 13.8809 17.1146 13.8809 20.3099C13.8809 23.5053 16.4713 26.0956 19.6666 26.0956C22.862 26.0956 25.4524 23.5053 25.4524 20.3099C25.4558 18.7744 24.8473 17.3008 23.7615 16.215C22.6757 15.1293 21.2022 14.5208 19.6666 14.5242ZM16.1309 20.3099C16.1309 22.2627 17.7139 23.8456 19.6666 23.8456C21.6194 23.8456 23.2024 22.2627 23.2024 20.3099C23.2024 18.3572 21.6194 16.7742 19.6666 16.7742C17.7139 16.7742 16.1309 18.3572 16.1309 20.3099Z" fill="white"/>
</svg>
