<svg width="32" height="32" viewBox="0 0 32 32" fill="none" xmlns="http://www.w3.org/2000/svg">
<g clip-path="url(#clip0_8012_1225)">
<path fill-rule="evenodd" clip-rule="evenodd" d="M15.7776 31.7006C7.33727 31.7006 0.470703 24.5973 0.470703 15.8659C0.470703 7.1346 7.33727 0.03125 15.7776 0.03125C24.2179 0.03125 31.0844 7.1346 31.0844 15.8659C31.0844 24.5973 24.2179 31.7006 15.7776 31.7006ZM23.7156 21.4285C23.9046 21.4285 24.0582 21.2695 24.0582 21.0741V11.1329L16.2703 17.5304C16.1262 17.6492 15.9522 17.708 15.7782 17.708C15.6042 17.708 15.4302 17.6486 15.2861 17.5304L7.49811 11.1329V21.0741C7.49811 21.2695 7.65178 21.4285 7.84013 21.4285H23.7162H23.7156ZM22.5222 10.3034L15.7776 15.8437L9.03298 10.3034H22.5222ZM25.6415 10.6578V21.0747C25.6415 22.1732 24.7775 23.067 23.7156 23.067H7.83953C6.77761 23.067 5.91361 22.1732 5.91361 21.0747V10.6578C5.91361 9.55928 6.77761 8.66549 7.83953 8.66549H23.7156C24.7775 8.66549 25.6415 9.55928 25.6415 10.6578Z" fill="white"/>
</g>
<defs>
<clipPath id="clip0_8012_1225">
<rect width="30.6137" height="31.6694" fill="white" transform="translate(0.470703 0.03125)"/>
</clipPath>
</defs>
</svg>
