<svg width="23" height="23" viewBox="0 0 23 23" fill="none" xmlns="http://www.w3.org/2000/svg">
<path d="M14.0499 5.03125C15.0267 5.22182 15.9243 5.69951 16.628 6.40319C17.3317 7.10686 17.8094 8.00451 17.9999 8.98125M14.0499 1.03125C16.0792 1.25669 17.9715 2.16542 19.4162 3.60826C20.8608 5.05109 21.7719 6.94226 21.9999 8.97125M20.9999 16.9513V19.9513C21.0011 20.2298 20.944 20.5054 20.8324 20.7606C20.7209 21.0158 20.5572 21.2448 20.352 21.4331C20.1468 21.6214 19.9045 21.7647 19.6407 21.854C19.3769 21.9432 19.0973 21.9763 18.8199 21.9513C15.7428 21.6169 12.7869 20.5654 10.1899 18.8813C7.77376 17.3459 5.72527 15.2974 4.18993 12.8813C2.49991 10.2725 1.44818 7.30224 1.11993 4.21125C1.09494 3.93472 1.12781 3.65601 1.21643 3.39287C1.30506 3.12974 1.4475 2.88794 1.6347 2.68287C1.82189 2.4778 2.04974 2.31396 2.30372 2.20177C2.55771 2.08958 2.83227 2.03151 3.10993 2.03125H6.10993C6.59524 2.02647 7.06572 2.19833 7.43369 2.51478C7.80166 2.83124 8.04201 3.2707 8.10993 3.75125C8.23656 4.71132 8.47138 5.65398 8.80993 6.56125C8.94448 6.91917 8.9736 7.30816 8.89384 7.68213C8.81408 8.0561 8.6288 8.39936 8.35993 8.67125L7.08993 9.94125C8.51349 12.4448 10.5864 14.5177 13.0899 15.9412L14.3599 14.6713C14.6318 14.4024 14.9751 14.2171 15.3491 14.1373C15.723 14.0576 16.112 14.0867 16.4699 14.2212C17.3772 14.5598 18.3199 14.7946 19.2799 14.9213C19.7657 14.9898 20.2093 15.2345 20.5265 15.6087C20.8436 15.983 21.0121 16.4608 20.9999 16.9513Z" stroke="white" stroke-width="2" stroke-linecap="round" stroke-linejoin="round"/>
</svg>
