<svg width="32" height="33" viewBox="0 0 32 33" fill="none" xmlns="http://www.w3.org/2000/svg">
<g clip-path="url(#clip0_8012_1229)">
<path d="M15.7761 25.805C16.4366 25.805 16.972 25.2511 16.972 24.5678C16.972 23.8845 16.4366 23.3306 15.7761 23.3306C15.1155 23.3306 14.5801 23.8845 14.5801 24.5678C14.5801 25.2511 15.1155 25.805 15.7761 25.805Z" fill="white"/>
<path d="M19.1101 7.90576H12.4384C12.0639 7.90576 11.7598 8.20557 11.7598 8.57399V21.6207C11.7598 21.9891 12.0639 22.2889 12.4384 22.2889H19.1101C19.4836 22.2889 19.7887 21.9891 19.7887 21.6207V8.57399C19.7887 8.20557 19.4846 7.90576 19.1101 7.90576Z" fill="white"/>
<path d="M15.7776 0.700684C7.3241 0.700684 0.470703 7.79041 0.470703 16.5354C0.470703 25.2804 7.3241 32.3701 15.7776 32.3701C24.2311 32.3701 31.0844 25.2804 31.0844 16.5354C31.0844 7.79041 24.23 0.700684 15.7776 0.700684ZM21.733 24.3493C21.733 25.559 20.785 26.5397 19.6155 26.5397H11.9407C10.7712 26.5397 9.8232 25.559 9.8232 24.3493V8.65181C9.8232 7.44204 10.7712 6.46135 11.9407 6.46135H19.6155C20.785 6.46135 21.733 7.44204 21.733 8.65181V24.3493Z" fill="white"/>
</g>
<defs>
<clipPath id="clip0_8012_1229">
<rect width="30.6137" height="31.6694" fill="white" transform="translate(0.470703 0.700684)"/>
</clipPath>
</defs>
</svg>
